<svg width="35" height="35" viewBox="0 0 35 83.0002" fill="none" xmlns="http://www.w3.org/2000/svg">
<path fill-rule="evenodd" clip-rule="evenodd" d="M12.4947 55.6177V70.3579L3.42428 75.5828C3.08644 75.7715 2.70696 75.8708 2.32108 75.8714C1.72035 75.8679 1.14405 75.6303 0.711836 75.2081C0.27962 74.7858 0.0247008 74.2113 1.23673e-05 73.6039V73.6039V64.4838V64.2141C-0.00142223 63.7663 0.12198 63.3271 0.356044 62.9471C0.590108 62.5671 0.925341 62.2616 1.32324 62.0657L12.4947 55.6177Z" fill="url(#paint0_linear)"/>
<path fill-rule="evenodd" clip-rule="evenodd" d="M3.38713 7.28241C3.43052 7.30436 12.4947 12.592 12.4947 12.592V26.0307C12.493 26.1374 12.4635 26.2418 12.409 26.3332C12.3546 26.4247 12.2773 26.4999 12.1849 26.5513L0.89563 33.244C0.804098 33.2972 0.700307 33.3248 0.594792 33.3242C0.489276 33.3236 0.385792 33.2948 0.294844 33.2407C0.203895 33.1865 0.128719 33.109 0.0769449 33.016C0.0251712 32.9229 -0.00135673 32.8176 5.34259e-05 32.7109V9.33663C0.00892787 8.72092 0.255397 8.13313 0.686794 7.69888C1.11819 7.26463 1.7003 7.01836 2.30872 7.0127C2.59174 7.01263 2.8723 7.0658 3.13612 7.16951L3.38713 7.28241Z" fill="url(#paint1_linear)"/>
<path fill-rule="evenodd" clip-rule="evenodd" d="M2.46355e-09 64.2268V50.1139C-2.1272e-05 49.5847 0.137748 49.0649 0.399429 48.6068C0.66111 48.1487 1.03746 47.7685 1.49056 47.5045L24.0163 34.3826C24.1066 34.3306 24.2088 34.3034 24.3128 34.3037C24.4167 34.3041 24.5187 34.332 24.6086 34.3846C24.6986 34.4373 24.7733 34.5129 24.8255 34.6038C24.8776 34.6948 24.9053 34.798 24.9057 34.9032V48.1161C24.9043 48.2229 24.8749 48.3274 24.8204 48.4189C24.766 48.5103 24.6885 48.5855 24.5958 48.6367L1.32012 62.0973C0.925648 62.2923 0.592941 62.595 0.359643 62.9713C0.126344 63.3477 0.00176567 63.7826 2.46355e-09 64.2268H2.46355e-09Z" fill="url(#paint2_linear)"/>
<path fill-rule="evenodd" clip-rule="evenodd" d="M3.45497 75.5485L35.9932 56.612C36.4466 56.3483 36.8231 55.9681 37.0848 55.51C37.3465 55.0518 37.4841 54.5319 37.4838 54.0027V28.8816C37.4838 28.3525 37.346 27.8327 37.0844 27.3746C36.8227 26.9165 36.4463 26.5363 35.9932 26.2723L3.45497 7.32952C3.10492 7.12354 2.70711 7.01532 2.30219 7.0159C2.00591 7.04005 1.71356 7.10007 1.4314 7.19467L13.0925 0.401618C13.5433 0.138193 14.0547 -0.000488281 14.5753 -0.000488281C15.0959 -0.000488281 15.6073 0.138193 16.0581 0.401618L48.3423 19.197C48.7954 19.461 49.1717 19.8412 49.4334 20.2993C49.6951 20.7574 49.8329 21.2772 49.8328 21.8063V61.3791C49.8315 61.9067 49.6931 62.4247 49.4315 62.881C49.1699 63.3374 48.7942 63.7161 48.3423 63.979L16.3215 82.5988C15.8711 82.8601 15.361 82.9976 14.8418 82.9976C14.3226 82.9976 13.8125 82.8601 13.3621 82.5988L1.31055 75.6269C1.64713 75.7921 2.01857 75.8713 2.3924 75.8577C2.76622 75.844 3.13104 75.7379 3.45497 75.5485V75.5485Z" fill="url(#paint3_linear)"/>
<defs>
<linearGradient id="paint0_linear" x1="10.155" y1="71.719" x2="3.69703" y2="60.6713" gradientUnits="userSpaceOnUse">
<stop stop-color="#D9C185"/>
<stop offset="1" stop-color="#8E783E"/>
</linearGradient>
<linearGradient id="paint1_linear" x1="-0.76537" y1="32.7328" x2="9.81537" y2="10.315" gradientUnits="userSpaceOnUse">
<stop offset="0.18" stop-color="#D9C185"/>
<stop offset="1" stop-color="#907C44"/>
</linearGradient>
<linearGradient id="paint2_linear" x1="1.77876" y1="65.3966" x2="22.9022" y2="33.2589" gradientUnits="userSpaceOnUse">
<stop stop-color="#D9C185"/>
<stop offset="0.28" stop-color="#C8B176"/>
<stop offset="1" stop-color="#9F8951"/>
</linearGradient>
<linearGradient id="paint3_linear" x1="25.5655" y1="0.000181893" x2="25.5655" y2="83.0002" gradientUnits="userSpaceOnUse">
<stop stop-color="#D9C185"/>
<stop offset="0.23" stop-color="#CEB67A"/>
<stop offset="0.62" stop-color="#B0995E"/>
<stop offset="1" stop-color="#8E783E"/>
</linearGradient>
</defs>
</svg>
